<?xml version="1.0" encoding="UTF-8"?>
<svg id="OFF_V2" data-name="OFF V2" xmlns="http://www.w3.org/2000/svg" viewBox="0 0 611.81 283.65">
  <defs>
    <style>
      .cls-1 {
        fill: #fff;
      }

      .cls-2 {
        fill: #fdc62f;
      }
    </style>
  </defs>
  <g>
    <path class="cls-2" d="M569.39,121.63l-27.03,57.6,17.9.28.34,1.3-3.99,8.23-.92.44c-5.43-1.94-11.18-2.93-16.93-2.8-7.84,15.62-19.01,39.82-37.58,44.53-9.54,2.42-18.26-2.22-15.86-12.97,4.61-20.64,23.61-33.01,43.06-37.2l7.87-16.2-6.6,5.45c-8.98,7.35-25.95,6.96-27.92-6.84l-.23-5.33c-5.75,7.45-22.99,22.33-32.91,17.03-1.68-.9-2.68-2.34-3.12-4.18-2.29-9.59,11.05-27.62,14.59-36.98,1.53-4.04-.04-6.1-4.32-5.08-6.65,1.58-20.59,17.59-24.05,23.66-3.69,6.49-6,13.77-9.48,20.32l-.91.45-11.85-.04c2.08-5.3,5.24-10.21,7.49-15.42.26-.6,1.38-2.66.6-3.09-7.43,8.06-20.86,20.72-32.47,20.57-9.92-.13-11.82-8.79-10.76-17.07-7.74,7.79-17.36,16.47-28.85,17.52s-17.74-6.57-19.23-17.46l-.83-.61c-7.78,9.05-25.28,23.56-37.74,15.91-4.48-2.75-5.01-9.93-4.7-14.67.13-1.91,1.31-4.45.35-5.99-6.25,9.17-21.25,25.35-33.56,22.22-10.97-2.78-9.75-10.08-8.31-19,.13-.79.58-.68-.64-1-13.66,17.41-50.1,37.87-56.88,3.25-6.5,6.12-12.12,13.86-20.98,16.69-10.78,3.45-18.21-3.9-15.55-14.69,2.49-10.07,11.07-19.33,17.66-27.01l-11.9-1.71c-2.34,4.46-4.7,9.35-8.65,12.59-1.13.92-7.89,4.97-8.84,3.12,7.05-10.1,13.98-20.51,17.61-32.44,8.81,6.71,19.34,8.62,30.18,8.15.26.81-4.92,5.26-5.86,6.23-5.58,5.85-18.96,19.86-16.57,28.32,3.81,13.49,19.83-3.87,23.45-9.14,9.03-13.12,20.42-32.67,39.94-28.14,10.28,2.38,11.84,13.07,6.19,20.88-7.28,10.05-19.31,11.79-30.64,10.61-.59-.06-.69-.62-.91.43-.56,2.64,1.91,7.97,3.9,9.8,9.06,8.32,23.9-1.4,31.27-7.75,10.6-9.13,17.67-20.67,26.17-31.63.61-.41,10.74-.1,11.89.3.74.26.8.16.43.9-5.28,9.27-18.63,23.99-17.42,35.02,1.13,10.29,13.47,1.79,17.46-1.81,10.27-9.25,17.85-22.31,25.18-33.91l-8.86-.86,4.6-8.67,10.21-.85c3.49-4.95,6.87-10.04,10.6-14.81,1.24-1.59,6.28-8.13,7.46-8.79,1.48-.82,9.51-.38,11.2.65l-16.28,22.99,11.06.36-4.93,9.35c-.48.26-8.97-.43-10.73-.04-.69.15-1.02.29-1.47.87-4.43,8.66-9.33,17.69-11.9,27.13-3.58,13.14,2.78,17.02,13.94,10.27,3.58-2.16,13.66-11.71,15.69-15.18,1.66-2.84,2.93-9.86,4.42-13.61,7.4-18.67,30.36-51.87,49.24-59.89,14.74-6.26,22.63,3.43,17.11,17.77-6.8,17.67-27.16,37.59-43.36,46.99-1.75,1.02-12.27,5.97-12.68,6.55-.78,1.1-1.04,5.92-1.07,7.5-.08,4.85.95,11.21,6.25,12.83,10.26,3.14,25.79-12.94,31.79-20.05,5.32-6.31,9.63-14.33,14.78-20.24.6-.69.91-1.27,1.9-1.54,2.83-.78,8.77.61,11.95-.18l.74.8c-6.01,8.13-12.56,16.23-16.27,25.77-2.13,5.46-5.47,15.4,4.28,13.72,7.78-1.34,19.7-14.34,24.38-20.59,4.51-6.02,7.78-12.98,12.48-18.76l12.38-.42c.16.39-3.22,6.41-3.72,7.57-.2.47-1.07,2.02-.26,2.21,4.42-7.72,20.91-16.08,27.48-7.27,6.14,8.24-5.64,22.52-8.98,29.93-4.4,9.75,2.02,9.78,8.8,5.86,15.48-8.95,26.76-40.51,46.29-40.85,4.52-.08,8.87.92,12.35,3.87,1.88,1.59,2.51,3.75,4.23,5.31l3.87-7.66,12.5.24ZM541.08,126.47c-6.51-.89-14.21,6.4-17.49,11.39-4.31,6.56-11.74,24.02,1.63,24.72,10.51.55,20.75-15.43,23.02-24.29,1.35-5.26-1.46-11.04-7.17-11.82ZM407.33,83.15c-1.72-2.83-6.8-1.83-9.31-.67-12.97,5.99-29,37.61-32.84,51-.42,1.46-.31,3.04-1.04,4.45,18.48-8.59,38.71-27.43,43.4-47.93.33-1.43.52-5.66-.2-6.85ZM525.98,186.66c-6.63,1.97-13.87,3.63-19.01,8.59-4.31,4.18-13.43,17.4-9.57,23.25,3.84,5.83,10.68.19,13.78-3.37,6.79-7.79,9.86-19.42,14.79-28.48ZM239.21,126.83c-6.45-1.9-14,7.17-16.77,12.13-.75,1.35-3.87,7.87-2.47,8.9,6.98.62,13.4-1.57,18.13-6.8,3.04-3.36,8.36-12.1,1.12-14.24Z"/>
    <path class="cls-2" d="M121.56,67.18l16.33-3.97c26.9-3.45,39.29,20.24,22.71,41.36-3.04,3.87-7.03,6.78-10.61,10.08,3.45,6,4.62,14.15,3.91,21.1-1.34,13.08-9.16,28.1-20.04,35.73-11.34,7.95-28.86,8.73-38.14-2.85-.5-2.06,6.69-10.43,8.09-12.54,3.78,3.18,6.25,5.01,11.4,5.4,11.01.84,21.88-8.1,26.06-17.85,3.1-7.21,4.66-18.67,1.79-26.04-7.14,2.11-19.93,4.54-25.18-2.25-4.01-5.2,1.15-11.3,6.29-13.12,6.72-2.38,15.1.25,20.19,5.04l.94-.09c6.58-7.67,13.27-20.26,4.89-29.01-7.25-7.57-19.66-7.76-28.89-4.14-1.01,5.4-1.7,10.92-2.9,16.29-6.16,27.46-18.97,58.92-40.64,77.74-7.63,6.62-19.13,13.1-28.88,6.5-16.35-11.08,2.65-43.57,10.58-55.18,12.38-18.12,29.18-33.44,47.76-44.92.92-1.33.3-13.21.14-15.7-.09-1.43-1.3-7.37-.59-8.01l13.14-3.95c1.67.59,2.59,17.87,1.67,20.4ZM106.27,81.61c-12.1,8.99-22.69,20.13-31.26,32.58-7.88,11.45-16.13,27.89-16.08,42.02.05,13.18,8.36,12.99,16.42,5.23,14.98-14.42,26.35-47.37,29.97-67.55.56-3.12,1.45-7.75,1.42-10.82,0-.54.17-1.16-.47-1.46ZM129.3,106.69c-2.5-.44-7.63,1.29-6.58,4.46,1.43,4.36,12.9,1.99,16.11.58-2-2.54-6.36-4.48-9.53-5.04Z"/>
    <polygon class="cls-2" points="438.92 106.42 432.63 114.91 420.1 115.01 426.09 105.9 438.92 106.42"/>
    <path class="cls-2" d="M304.8,107.22l-6.15,8.77-12.82.28c-.18-.59,5.48-9.27,6.01-9.46l12.96.41Z"/>
  </g>
  <g>
    <path class="cls-1" d="M280.9,225.07h14.93l-2.48,10.73h-27.52l10.73-46.79h12.59l-8.26,36.05Z"/>
    <path class="cls-1" d="M323.49,206.84l-2.48,10.66h-7.16l-1.72,7.57h14.24l-2.48,10.73h-26.83l10.73-46.79h26.83l-2.48,10.73h-14.24l-1.58,7.09h7.16Z"/>
    <path class="cls-1" d="M347.09,235.81l.41-5.57h-7.77l-2.06,5.57h-12.93l21.54-46.79h13.42v46.79h-12.59ZM343.03,221.49h5.09l1.17-16.44h-.14l-6.12,16.44Z"/>
    <path class="cls-1" d="M394.5,222.46c-2.27,9.63-9.08,13.9-17.68,13.9-9.77,0-14.79-5.5-12.52-15.27l4.68-20.09c2.06-8.81,9.43-12.52,16.86-12.52,9.77,0,15.34,6.47,13.14,15.07l-.48,1.86h-12.25l.69-3.03c.48-2.2-.83-3.17-2.27-3.17-1.24,0-2.89.69-3.37,2.75l-4.82,20.92c-.48,1.93,1.03,2.75,2.2,2.75,1.31,0,3.1-.96,3.51-2.75l.83-3.51h-3.03l2.2-9.5h15.27l-2.96,12.59Z"/>
    <path class="cls-1" d="M424.98,189.02h12.59l-7.84,34.26c-2,8.74-7.91,13.07-17.06,13.07s-14.79-4.54-12.59-14.31l7.5-33.02h12.59l-7.43,32.47c-.48,2.2-.76,4.13,1.58,4.13s2.68-1.93,3.23-4.13l7.43-32.47Z"/>
    <path class="cls-1" d="M459.32,206.84l-2.48,10.66h-7.16l-1.72,7.57h14.24l-2.48,10.73h-26.83l10.73-46.79h26.83l-2.48,10.73h-14.24l-1.58,7.09h7.16Z"/>
    <g>
      <path class="cls-1" d="M231.1,208.24c4.77-1.29,7.68-7.6,9.38-12.25.24-.67.58-1.94.9-3.18.38-1.45.78-2.99,1.09-3.79h-5.05l-9.01,19.57c1.45-.11,2.37-.26,2.7-.35Z"/>
      <path class="cls-1" d="M243.57,189.23c-.05.97-.15,2.11-.25,3.34-.29,3.43-.66,7.7-.14,10.27.84,4.17,3.85,5.87,7.65,6.78v-20.6h-7.24l-.02.21Z"/>
      <path class="cls-1" d="M247.38,214.27c-4.18,1.38-6.56,3.95-8.25,7.07h0s0,0,0,0c-1.16,2.15-1.99,4.55-2.84,7.01l-.11.33c-.23.66-.42,1.16-.58,1.54h3.05l-.41,5.57h12.59v-22.33c-1.36.26-2.5.49-3.45.8Z"/>
      <path class="cls-1" d="M234.15,228.48c.16-2.46.4-6.18-.07-8.42-.52-2.49-2.17-4.69-4.11-5.46-.35-.14-1.79-.34-4.1-.49l-9.99,21.7h12.93l2.06-5.57h3.18c.01-.39.04-.94.1-1.75Z"/>
    </g>
    <g>
      <path class="cls-1" d="M220.08,208.96l9.41-19.94h-12.18l-8.47,20.2c4.19-.08,8-.16,11.23-.26Z"/>
      <path class="cls-1" d="M207.12,209.25l1.19-20.23h-12.66v20.4c4.01-.05,7.87-.1,11.47-.17Z"/>
      <path class="cls-1" d="M207.12,213.35h-.25c-3.52-.11-7.3-.2-11.23-.29v22.75h11.77l10.43-22.1c-3.14-.12-6.77-.24-10.72-.35Z"/>
    </g>
    <g>
      <path class="cls-1" d="M176.05,212.65l-2.35,10.22c-.48,2-2,2.75-3.1,2.75-1.03,0-2.41-.69-1.93-2.75l2.38-10.32c-4.31-.08-8.55-.15-12.58-.22l-2.04,8.75c-2.06,8.74,3.03,15.27,12.93,15.27,7.22,0,14.65-3.58,16.72-12.52l2.55-10.93c-4.14-.09-8.37-.17-12.58-.25Z"/>
      <path class="cls-1" d="M171.72,209.64l1.77-7.69c.48-2,1.86-2.75,3.1-2.75,1.1,0,2.41.69,1.93,2.75l-1.76,7.65c4.25-.03,8.51-.07,12.67-.12l1.34-5.75c1.93-8.26-2.55-15.27-13-15.27-8.05,0-14.72,4.2-16.65,12.52l-2.03,8.74c4.08-.03,8.33-.05,12.65-.09Z"/>
    </g>
    <g>
      <path class="cls-1" d="M137.5,190.08h-10.94l-4.82,21.01c4.28-.08,11.18-.14,19.55-.19l-3.79-20.82Z"/>
      <path class="cls-1" d="M146.79,190.08l-4.54,20.81c3.14-.02,6.48-.04,9.95-.06.42,0,.84,0,1.26,0l4.76-20.74h-11.42Z"/>
      <path class="cls-1" d="M141.7,213.1h0c-3.34-.06-6.77-.12-9.58-.18h0s-.03,0-.05,0h0s0,0,0,0h0c-4.42-.09-8.08-.17-10.69-.26l-5.55,24.2h11.42l4.79-23.81h.05s4.38,23.81,4.38,23.81h11.01l5.41-23.57c-3.9-.07-7.64-.13-11.12-.19h-.07Z"/>
    </g>
  </g>
</svg>